<svg width="202" height="71" viewBox="0 0 202 71" fill="none" xmlns="http://www.w3.org/2000/svg">
<g clip-path="url(#clip0_408_129)">
<mask id="path-1-inside-1_408_129" fill="white">
<path fill-rule="evenodd" clip-rule="evenodd" d="M149.403 70.9998C178.36 70.9998 201.835 55.1059 201.835 35.4999C201.835 15.8939 178.36 3.11432e-05 149.403 2.6087e-05C128.416 2.24225e-05 110.308 8.3488 101.931 20.4087C101.447 21.105 100.388 21.105 99.9047 20.4087C91.5271 8.34881 73.4199 2.97715e-05 52.4327 2.61069e-05C23.4755 2.10507e-05 0.00097378 15.8939 0.000970347 35.4999C0.000966914 55.1059 23.4755 70.9998 52.4327 70.9998C73.4199 70.9998 91.5271 62.651 99.9047 50.5911C100.388 49.8948 101.447 49.8948 101.931 50.5911C110.308 62.651 128.416 70.9998 149.403 70.9998Z"/>
</mask>
<path fill-rule="evenodd" clip-rule="evenodd" d="M149.403 70.9998C178.36 70.9998 201.835 55.1059 201.835 35.4999C201.835 15.8939 178.36 3.11432e-05 149.403 2.6087e-05C128.416 2.24225e-05 110.308 8.3488 101.931 20.4087C101.447 21.105 100.388 21.105 99.9047 20.4087C91.5271 8.34881 73.4199 2.97715e-05 52.4327 2.61069e-05C23.4755 2.10507e-05 0.00097378 15.8939 0.000970347 35.4999C0.000966914 55.1059 23.4755 70.9998 52.4327 70.9998C73.4199 70.9998 91.5271 62.651 99.9047 50.5911C100.388 49.8948 101.447 49.8948 101.931 50.5911C110.308 62.651 128.416 70.9998 149.403 70.9998Z" fill="#D63B17"/>
<path d="M99.9047 50.5911L102.682 52.5202L99.9047 50.5911ZM101.931 50.5911L104.708 48.6619L101.931 50.5911ZM101.931 20.4087L99.1537 18.4796L101.931 20.4087ZM99.9047 20.4087L102.682 18.4796L99.9047 20.4087ZM198.453 35.4999C198.453 43.845 193.459 51.7918 184.582 57.8021C175.724 63.7996 163.296 67.6184 149.403 67.6184L149.403 74.3812C164.467 74.3812 178.255 70.2531 188.373 63.4021C198.473 56.564 205.216 46.7609 205.216 35.4999L198.453 35.4999ZM149.403 3.38141C163.296 3.38141 175.724 7.20023 184.582 13.1977C193.459 19.208 198.453 27.1548 198.453 35.4999L205.216 35.4999C205.216 24.239 198.473 14.4358 188.373 7.59774C178.255 0.746754 164.467 -3.38136 149.403 -3.38136L149.403 3.38141ZM104.708 22.3379C112.268 11.4552 129.152 3.38141 149.403 3.38141L149.403 -3.38136C127.679 -3.38136 108.349 5.24243 99.1537 18.4796L104.708 22.3379ZM52.4327 3.38141C72.6837 3.38142 89.5678 11.4552 97.1276 22.3379L102.682 18.4796C93.4864 5.24244 74.1562 -3.38136 52.4327 -3.38136L52.4327 3.38141ZM3.38236 35.4999C3.38236 27.1548 8.37662 19.208 17.2536 13.1977C26.1116 7.20022 38.5392 3.38141 52.4327 3.38141L52.4327 -3.38136C37.369 -3.38136 23.5807 0.746744 13.4621 7.59772C3.36258 14.4358 -3.38041 24.2389 -3.38042 35.4999L3.38236 35.4999ZM52.4327 67.6184C38.5392 67.6184 26.1116 63.7996 17.2536 57.8021C8.37661 51.7918 3.38236 43.845 3.38236 35.4999L-3.38042 35.4999C-3.38042 46.7608 3.36257 56.564 13.4621 63.4021C23.5807 70.253 37.369 74.3812 52.4327 74.3812L52.4327 67.6184ZM97.1276 48.6619C89.5678 59.5446 72.6837 67.6184 52.4327 67.6184L52.4327 74.3812C74.1561 74.3812 93.4864 65.7574 102.682 52.5202L97.1276 48.6619ZM149.403 67.6184C129.152 67.6184 112.268 59.5446 104.708 48.6619L99.1537 52.5202C108.349 65.7574 127.679 74.3812 149.403 74.3812L149.403 67.6184ZM102.682 52.5202C101.82 53.7603 100.015 53.7603 99.1537 52.5202L104.708 48.6619C102.879 46.0294 98.9564 46.0294 97.1276 48.6619L102.682 52.5202ZM99.1537 18.4796C100.015 17.2395 101.82 17.2395 102.682 18.4796L97.1276 22.3379C98.9564 24.9704 102.879 24.9704 104.708 22.3379L99.1537 18.4796Z" fill="black" mask="url(#path-1-inside-1_408_129)"/>
<path d="M185.486 35.4228C185.486 53.9987 169.89 69.1546 150.531 69.1545C131.171 69.1545 115.575 53.9987 115.575 35.4227C115.575 16.8468 131.171 1.69094 150.531 1.69094C169.89 1.69095 185.486 16.8468 185.486 35.4228Z" stroke="black" stroke-width="3.38139"/>
<path d="M168.08 35.5001C168.08 45.0777 165.973 53.6647 162.649 59.7967C159.29 65.995 154.929 69.3093 150.53 69.3093C146.131 69.3093 141.771 65.995 138.411 59.7967C135.087 53.6647 132.98 45.0777 132.98 35.5001C132.98 25.9226 135.087 17.3355 138.411 11.2036C141.771 5.00523 146.131 1.69094 150.53 1.69094C154.929 1.69094 159.29 5.00524 162.649 11.2036C165.973 17.3355 168.08 25.9226 168.08 35.5001Z" stroke="black" stroke-width="3.38139"/>
<path d="M106.035 17.99L193.822 17.99" stroke="black" stroke-width="3.38139"/>
<path d="M106.035 52.7703L193.822 52.7703" stroke="black" stroke-width="3.38139"/>
<path d="M98.0986 35.5001L202 35.5001" stroke="black" stroke-width="3.38139"/>
<path d="M150.53 0.000244141L150.53 71" stroke="black" stroke-width="3.38139"/>
<path d="M171.946 35.9848C171.946 48.0846 162.11 57.9013 149.966 57.9013C137.822 57.9013 127.986 48.0846 127.986 35.9848C127.986 23.8849 137.822 14.0682 149.966 14.0682C162.11 14.0682 171.946 23.8849 171.946 35.9848Z" fill="#D63B17" stroke="black" stroke-width="3.39697"/>
<path d="M88.5151 35.4225C88.5151 53.9984 72.9197 69.1543 53.5599 69.1543C34.2001 69.1543 18.6047 53.9984 18.6047 35.4225C18.6048 16.8466 34.2001 1.6907 53.5599 1.6907C72.9197 1.6907 88.5151 16.8466 88.5151 35.4225Z" stroke="black" stroke-width="3.38139"/>
<path d="M71.1097 35.4999C71.1097 45.0774 69.0019 53.6645 65.6784 59.7964C62.3189 65.9948 57.9583 69.3091 53.5594 69.3091C49.1604 69.3091 44.7998 65.9948 41.4403 59.7964C38.1168 53.6645 36.009 45.0774 36.009 35.4999C36.009 25.9223 38.1168 17.3353 41.4403 11.2033C44.7998 5.00499 49.1604 1.6907 53.5594 1.6907C57.9584 1.6907 62.3189 5.00499 65.6784 11.2033C69.002 17.3353 71.1097 25.9223 71.1097 35.4999Z" stroke="black" stroke-width="3.38139"/>
<path d="M9.06445 17.9897L96.8516 17.9898" stroke="black" stroke-width="3.38139"/>
<path d="M9.06445 52.77L96.8516 52.77" stroke="black" stroke-width="3.38139"/>
<path d="M1.12793 35.4999L105.029 35.4999" stroke="black" stroke-width="3.38139"/>
<path d="M53.5596 0L53.5596 70.9997" stroke="black" stroke-width="3.38139"/>
<path d="M150.575 17.9924C148.436 17.9924 146.743 19.5229 146.743 21.9886C146.743 25.0177 148.419 26.8211 149.338 30.6897C149.683 32.1419 148.102 33.0897 146.979 32.107C143.886 29.4017 143.098 27.0332 140.328 25.4746C139.526 25.0495 138.725 24.8794 138.012 24.8794C136.586 24.8794 135.428 25.5596 134.715 26.665C134.359 27.2601 134.181 27.8553 134.181 28.5355C134.181 29.8109 134.982 31.0012 136.497 31.8515C139.145 33.3146 141.848 32.905 145.714 34C147.184 34.4162 147.195 36.2845 145.731 36.7175C141.882 37.8555 139.217 37.4446 136.497 38.9086C134.982 39.7588 134.181 41.0342 134.181 42.3096C134.181 42.9047 134.359 43.5849 134.715 44.0951C135.428 45.2004 136.586 45.9656 138.012 45.9656C138.725 45.9656 139.526 45.7956 140.328 45.2854C143.131 43.7082 143.847 41.1907 147.058 38.4467C148.173 37.4938 149.723 38.428 149.404 39.8594C148.515 43.8461 146.743 45.7242 146.743 48.8565C146.743 51.3222 148.436 52.8527 150.575 52.8527C152.713 52.8527 154.406 51.3222 154.406 48.8565C154.406 45.7115 152.505 43.886 151.575 39.8434C151.247 38.417 152.792 37.479 153.919 38.4129C157.291 41.2069 157.996 43.6957 160.821 45.2854C161.623 45.7956 162.336 45.9656 163.138 45.9656C164.474 45.9656 165.722 45.2004 166.434 44.0951C166.702 43.5849 166.88 42.9047 166.88 42.3096C166.88 41.0342 166.167 39.7588 164.652 38.9086C161.897 37.4252 159.365 37.9202 155.37 36.7047C153.917 36.2629 153.91 34.3954 155.365 33.9631C159.308 32.7915 161.98 33.3279 164.652 31.8515C166.167 31.0012 166.88 29.8109 166.88 28.5355C166.88 27.9034 166.726 27.3448 166.49 26.7913C166.454 26.7069 166.41 26.6257 166.358 26.5504C165.634 25.5128 164.427 24.8795 163.138 24.8795C162.336 24.8795 161.623 25.0495 160.821 25.4746C158.043 27.038 157.258 29.362 154.096 32.0993C152.966 33.0782 151.381 32.1287 151.738 30.6764C152.681 26.8424 154.406 25.0791 154.406 21.9886C154.406 19.5229 152.713 17.9924 150.575 17.9924Z" fill="black"/>
</g>
<defs>
<clipPath id="clip0_408_129">
<rect width="202" height="71" fill="white"/>
</clipPath>
</defs>
</svg>
