<svg width="98" height="35" viewBox="0 0 98 35" fill="none" xmlns="http://www.w3.org/2000/svg">
<path fill-rule="evenodd" clip-rule="evenodd" d="M17.1679 31.8321C25.2667 31.8321 31.8321 25.2667 31.8321 17.1679C31.8321 9.06905 25.2667 2.50365 17.1679 2.50365C9.06905 2.50365 2.50365 9.06905 2.50365 17.1679C2.50365 25.2667 9.06905 31.8321 17.1679 31.8321ZM17.1679 0C23.4273 0 28.9043 3.34983 31.9039 8.35456C32.3994 9.18114 33.7685 9.18114 34.2639 8.35456C37.2636 3.34983 42.7406 0 49 0C55.2594 0 60.7364 3.34983 63.7361 8.35456C64.2315 9.18114 65.6006 9.18114 66.0961 8.35456C69.0957 3.34983 74.5727 0 80.8321 0C90.3137 0 98 7.68632 98 17.1679C98 26.6494 90.3137 34.3358 80.8321 34.3358C74.5727 34.3358 69.0957 30.9859 66.0961 25.9812C65.6006 25.1546 64.2315 25.1546 63.7361 25.9812C60.7364 30.9859 55.2594 34.3358 49 34.3358C42.7406 34.3358 37.2636 30.9859 34.264 25.9812C33.7685 25.1546 32.3994 25.1546 31.9039 25.9812C28.9043 30.9859 23.4273 34.3358 17.1679 34.3358C7.68632 34.3358 0 26.6494 0 17.1679C0 7.68632 7.68632 0 17.1679 0ZM63.6642 17.1679C63.6642 9.06905 57.0988 2.50365 49 2.50365C40.9012 2.50365 34.3358 9.06905 34.3358 17.1679C34.3358 25.2667 40.9012 31.8321 49 31.8321C57.0988 31.8321 63.6642 25.2667 63.6642 17.1679ZM66.1679 17.1679C66.1679 25.2667 72.7333 31.8321 80.8321 31.8321C88.931 31.8321 95.4964 25.2667 95.4964 17.1679C95.4964 9.06905 88.931 2.50365 80.8321 2.50365C72.7333 2.50365 66.1679 9.06905 66.1679 17.1679Z" fill="black"/>
<g style="mix-blend-mode:difference">
<path d="M48.979 8.58395C50.0081 8.58395 50.8229 9.35336 50.8229 10.593C50.8229 12.2719 49.8429 13.2018 49.451 15.5998C49.3743 16.0695 49.8873 16.3685 50.2571 16.069C52.1348 14.5481 52.4518 13.203 53.9103 12.3455C54.2962 12.1318 54.6821 12.0463 55.0252 12.0463C55.7113 12.0463 56.2687 12.3883 56.6118 12.944C56.7833 13.2432 56.8691 13.5424 56.8691 13.8844C56.8691 14.5255 56.4831 15.124 55.7542 15.5514C54.3363 16.3697 52.8859 16.0228 50.6684 16.8484C50.225 17.0135 50.2213 17.6019 50.6626 17.7726C52.8745 18.6283 54.2981 18.2805 55.7542 19.0993C56.4831 19.5267 56.8691 20.1679 56.8691 20.8091C56.8691 21.1083 56.7833 21.4503 56.6118 21.7067C56.2687 22.2624 55.7113 22.6471 55.0252 22.6471C54.6821 22.6471 54.2962 22.5616 53.9103 22.3052C52.4423 21.4422 52.1638 20.0192 50.2324 18.4989C49.8648 18.2096 49.3625 18.5041 49.4319 18.9667C49.798 21.4054 50.8229 22.3739 50.8229 24.1005C50.8229 25.3401 50.0081 26.1095 48.979 26.1095C47.9499 26.1095 47.1351 25.3401 47.1351 24.1005C47.1351 22.3701 48.2311 21.4342 48.6109 18.9621C48.6818 18.5007 48.1804 18.2057 47.8104 18.4904C45.7967 20.0397 45.5223 21.4383 44.0477 22.3052C43.6618 22.5616 43.3188 22.6471 42.9328 22.6471C42.2896 22.6471 41.6893 22.2624 41.3462 21.7067C41.2176 21.4503 41.1318 21.1083 41.1318 20.8091C41.1318 20.1679 41.4749 19.5267 42.2039 19.0993C43.671 18.2743 45.0062 18.6665 47.3096 17.765C47.7475 17.5936 47.7506 17.0084 47.3128 16.8371C45.0548 15.9537 43.6293 16.3741 42.2039 15.5514C41.4749 15.124 41.1318 14.5255 41.1318 13.8844C41.1318 13.5573 41.2103 13.2694 41.3297 12.9831C41.3405 12.957 41.3536 12.9318 41.369 12.908C41.7154 12.3736 42.3036 12.0463 42.9328 12.0463C43.3188 12.0463 43.6618 12.1318 44.0477 12.3455C45.509 13.2046 45.8244 14.5205 47.7401 16.0652C48.1114 16.3646 48.6259 16.065 48.5468 15.5946C48.1459 13.2096 47.1351 12.3075 47.1351 10.593C47.1351 9.35336 47.9499 8.58395 48.979 8.58395Z" fill="black"/>
</g>
<path d="M19.2353 7.54639H21.5762C21.7782 7.54639 21.971 7.55557 22.1546 7.57393C22.3382 7.59229 22.4759 7.64737 22.5677 7.73917C22.6411 7.83097 22.687 7.96867 22.7054 8.15227C22.7421 8.31751 22.7605 8.50111 22.7605 8.70307C22.7788 8.90504 22.7788 9.107 22.7605 9.30896C22.7605 9.51092 22.7605 9.69452 22.7605 9.85976V15.3953V20.0772C22.7605 20.4994 22.7605 20.9401 22.7605 21.3991C22.7788 21.8397 22.7421 22.2436 22.6503 22.6108C22.6136 22.7026 22.5952 22.7944 22.5952 22.8863C22.6136 22.9597 22.6044 23.0423 22.5677 23.1341C22.5126 23.2994 22.4667 23.4738 22.43 23.6574C22.3933 23.8226 22.3382 23.9879 22.2647 24.1531C21.8608 25.1629 21.2825 25.934 20.5297 26.4665C20.2727 26.6501 19.9881 26.8061 19.676 26.9347C19.3822 27.0632 19.0701 27.1825 18.7396 27.2927C18.5927 27.3294 18.4458 27.3569 18.299 27.3753C18.1704 27.412 18.0327 27.4487 17.8859 27.4855C17.739 27.5222 17.5737 27.5405 17.3901 27.5405C17.2249 27.5405 17.0597 27.5589 16.8944 27.5956H16.5915C16.4813 27.6323 16.3253 27.6415 16.1233 27.6232C15.9397 27.6232 15.7928 27.6048 15.6827 27.5681C15.4807 27.5681 15.3338 27.5589 15.242 27.5405C15.0584 27.5038 14.8748 27.4763 14.6912 27.4579C14.526 27.4396 14.3699 27.412 14.223 27.3753C14.0211 27.3019 13.8191 27.2376 13.6171 27.1825C13.4152 27.1274 13.2224 27.054 13.0388 26.9622C12.4513 26.7052 11.9188 26.3563 11.4415 25.9157C10.9641 25.4567 10.5969 24.9334 10.3399 24.3459C10.2664 24.1623 10.2022 23.9787 10.1471 23.7951C10.092 23.6115 10.0369 23.4187 9.98184 23.2167C9.94512 23.0699 9.92676 22.9597 9.92676 22.8863C9.89004 22.7944 9.87168 22.7118 9.87168 22.6384C9.89004 22.5649 9.88086 22.4823 9.84414 22.3905C9.82578 22.3538 9.8166 22.3079 9.8166 22.2528C9.8166 22.1794 9.8166 22.1243 9.8166 22.0876V21.8122C9.79824 21.7204 9.78906 21.6286 9.78906 21.5368C9.78906 21.4266 9.78906 21.3256 9.78906 21.2338C9.78906 20.9768 9.79824 20.7381 9.8166 20.5178C9.83496 20.2791 9.91758 20.1139 10.0645 20.0221C10.2113 19.9303 10.4041 19.8844 10.6428 19.8844C10.8998 19.8844 11.1385 19.8844 11.3589 19.8844C11.5241 19.8844 11.7169 19.8844 11.9372 19.8844C12.1575 19.866 12.3687 19.866 12.5706 19.8844C12.7909 19.8844 12.9837 19.9027 13.149 19.9395C13.3326 19.9762 13.4519 20.0404 13.507 20.1322C13.6355 20.3158 13.6814 20.5545 13.6447 20.8483C13.6263 21.142 13.6447 21.4174 13.6998 21.6745C13.7365 21.7846 13.7548 21.8948 13.7548 22.005C13.7732 22.0968 13.8007 22.1977 13.8375 22.3079C13.9109 22.5649 14.0027 22.8036 14.1129 23.024C14.223 23.2259 14.3791 23.4003 14.581 23.5472C14.8014 23.7125 15.1043 23.8502 15.4899 23.9603C15.8754 24.0705 16.2702 24.0797 16.6741 23.9879C16.7659 23.9511 16.8485 23.9328 16.922 23.9328C16.9954 23.9328 17.0688 23.9144 17.1423 23.8777C17.6931 23.6574 18.0603 23.281 18.2439 22.7486C18.3173 22.5833 18.3632 22.4181 18.3816 22.2528C18.3999 22.0692 18.4275 21.8764 18.4642 21.6745C18.4642 21.5643 18.4642 21.4633 18.4642 21.3715C18.4642 21.2614 18.4734 21.1512 18.4917 21.0411C18.5101 20.9493 18.5101 20.8483 18.4917 20.7381C18.4917 20.6096 18.4917 20.4903 18.4917 20.3801V19.0582V11.6774V9.03356C18.4917 8.83159 18.4826 8.62045 18.4642 8.40013C18.4642 8.17981 18.5101 7.99621 18.6019 7.84933C18.6753 7.73917 18.8131 7.64737 19.015 7.57393C19.1252 7.57393 19.1986 7.56475 19.2353 7.54639Z" fill="black"/>
<path d="M81.4763 7.0781C83.4042 7.04138 84.9923 7.37186 86.2408 8.06955C87.4893 8.76723 88.4807 9.69441 89.2151 10.8511C89.4171 11.1632 89.5823 11.4845 89.7108 11.815C89.8394 12.1271 89.9587 12.476 90.0689 12.8615C90.1056 12.9901 90.1423 13.1369 90.179 13.3022C90.2157 13.4674 90.2066 13.6235 90.1515 13.7704C90.1148 13.8805 90.0413 13.954 89.9312 13.9907C89.8394 14.009 89.7292 14.0366 89.6007 14.0733H89.3804C89.2702 14.11 89.1417 14.1284 88.9948 14.1284C88.8663 14.11 88.7378 14.1008 88.6092 14.1008C88.444 14.1008 88.242 14.11 88.0034 14.1284C87.783 14.1284 87.5627 14.1284 87.3424 14.1284C87.1221 14.11 86.9201 14.0917 86.7365 14.0733C86.5529 14.0366 86.4152 13.9907 86.3234 13.9356C86.1765 13.8071 86.0664 13.6327 85.9929 13.4123C85.9195 13.192 85.8277 12.9992 85.7175 12.834C85.3687 12.2281 84.9097 11.7507 84.3405 11.4019C83.955 11.1632 83.5235 10.9704 83.0461 10.8236C82.734 10.7134 82.3393 10.6583 81.8619 10.6583C81.4029 10.6583 80.999 10.7042 80.6501 10.796C80.5033 10.8327 80.3656 10.8695 80.237 10.9062C80.1269 10.9245 80.0075 10.9613 79.879 11.0163C78.6305 11.5488 77.7492 12.4301 77.2352 13.6602C77.1434 13.8805 77.0607 14.11 76.9873 14.3487C76.9139 14.5874 76.8312 14.8352 76.7394 15.0923C76.7211 15.2208 76.7027 15.3401 76.6844 15.4503C76.666 15.5605 76.6476 15.6798 76.6293 15.8083C76.5926 15.9185 76.5742 16.0378 76.5742 16.1663C76.5926 16.2765 76.5834 16.3959 76.5467 16.5244C76.5099 16.6713 76.4916 16.8273 76.4916 16.9926C76.5099 17.1394 76.5191 17.2863 76.5191 17.4332C76.5191 17.5066 76.5099 17.5801 76.4916 17.6535C76.4916 17.727 76.5008 17.8004 76.5191 17.8738V18.1217C76.5558 18.2135 76.565 18.3053 76.5467 18.3971C76.5467 18.4889 76.565 18.5807 76.6017 18.6725C76.6017 18.7827 76.6201 18.9295 76.6568 19.1131C76.6935 19.3151 76.7303 19.5079 76.767 19.6915C76.8037 19.8567 76.8496 20.022 76.9047 20.1872C77.1617 20.9583 77.4922 21.6193 77.8961 22.1701C78.3 22.7025 78.8325 23.1432 79.4935 23.492C79.6954 23.5838 79.9066 23.6665 80.1269 23.7399C80.3472 23.795 80.5859 23.8592 80.8429 23.9327C80.9347 23.951 81.0173 23.9694 81.0908 23.9878C81.1826 23.9878 81.2744 23.9878 81.3662 23.9878H81.5865C81.6783 24.0245 81.7976 24.0428 81.9445 24.0428C82.0914 24.0245 82.2107 24.0061 82.3025 23.9878C82.4127 23.9878 82.4953 23.9786 82.5504 23.9602C82.7707 23.9235 82.9727 23.8868 83.1563 23.8501C83.3583 23.8133 83.551 23.7491 83.7346 23.6573C84.1569 23.4737 84.5149 23.235 84.8087 22.9412C85.1208 22.6291 85.3962 22.2803 85.6349 21.8947C85.7451 21.7111 85.8369 21.5091 85.9103 21.2888C85.9837 21.0685 86.0664 20.8482 86.1582 20.6279C86.2132 20.4259 86.2683 20.2423 86.3234 20.0771C86.3785 19.9118 86.4978 19.7833 86.6814 19.6915C86.7916 19.6548 86.9293 19.6364 87.0945 19.6364C87.2598 19.6364 87.4158 19.6364 87.5627 19.6364H89.2427C89.4079 19.6364 89.5731 19.6364 89.7384 19.6364C89.922 19.6364 90.0689 19.6731 90.179 19.7466C90.3075 19.8384 90.3718 19.9852 90.3718 20.1872C90.3902 20.3892 90.3718 20.582 90.3167 20.7656L90.1515 21.5091C90.0597 21.7845 89.9679 22.0508 89.8761 22.3078C89.8026 22.5648 89.7017 22.8127 89.5731 23.0514C89.4813 23.1983 89.4079 23.3451 89.3528 23.492C89.2977 23.6205 89.2243 23.7491 89.1325 23.8776C88.1227 25.4566 86.6539 26.5582 84.7261 27.1824C84.5241 27.2558 84.3222 27.3109 84.1202 27.3477C83.9182 27.3844 83.7163 27.4211 83.5143 27.4578C83.4225 27.4945 83.3307 27.5037 83.2389 27.4854C83.1655 27.4854 83.0829 27.5037 82.991 27.5404C82.8625 27.5404 82.734 27.5404 82.6055 27.5404C82.4953 27.5588 82.376 27.5772 82.2475 27.5955H81.8068C81.6416 27.5955 81.4763 27.5955 81.3111 27.5955C81.1459 27.5955 80.9898 27.5772 80.8429 27.5404C80.7878 27.5221 80.696 27.5129 80.5675 27.5129C80.439 27.4945 80.3105 27.4762 80.182 27.4578C80.0534 27.4395 79.9157 27.4211 79.7689 27.4027C79.5853 27.3477 79.4017 27.3017 79.218 27.265C79.0528 27.2283 78.8784 27.1824 78.6948 27.1273C78.5295 27.0722 78.3643 27.0172 78.1991 26.9621C78.0338 26.8886 77.8778 26.8152 77.7309 26.7418C76.6293 26.2644 75.6929 25.631 74.9218 24.8415C74.169 24.0337 73.554 23.0789 73.0766 21.9773C72.9664 21.7019 72.8746 21.4265 72.8012 21.1511C72.7278 20.8757 72.6451 20.5911 72.5533 20.2974C72.5166 20.2056 72.4983 20.1321 72.4983 20.0771C72.4983 20.0036 72.4891 19.9302 72.4707 19.8567C72.434 19.6915 72.4065 19.5171 72.3881 19.3335C72.3697 19.1499 72.3422 18.9754 72.3055 18.8102C72.2688 18.7184 72.2504 18.645 72.2504 18.5899C72.2688 18.5164 72.2688 18.443 72.2504 18.3696V17.8463C72.2137 17.7545 72.1953 17.6168 72.1953 17.4332C72.1953 17.2496 72.2137 17.1119 72.2504 17.0201C72.2688 16.965 72.2688 16.9099 72.2504 16.8549C72.2504 16.7814 72.2504 16.7263 72.2504 16.6896V16.4418C72.2871 16.2949 72.3055 16.1388 72.3055 15.9736C72.3238 15.8083 72.3422 15.6431 72.3606 15.4778C72.3973 15.331 72.4248 15.1933 72.4432 15.0647C72.4615 14.9179 72.4891 14.771 72.5258 14.6241C72.5992 14.3671 72.6635 14.1192 72.7186 13.8805C72.7737 13.6235 72.8471 13.3848 72.9389 13.1645C73.0307 12.9258 73.1225 12.6871 73.2143 12.4484C73.3245 12.2097 73.4438 11.9894 73.5723 11.7875C73.8661 11.2734 74.169 10.8144 74.4811 10.4105C74.5729 10.2819 74.6739 10.1626 74.7841 10.0524C74.8942 9.94228 75.0044 9.83212 75.1146 9.72196C75.5736 9.26295 76.0509 8.87739 76.5467 8.56527C77.0607 8.23479 77.6391 7.94103 78.2817 7.68398C78.502 7.59218 78.7315 7.51874 78.9702 7.46366C79.2089 7.39022 79.4567 7.32596 79.7138 7.27088C79.8239 7.23416 79.9341 7.2158 80.0443 7.2158C80.1544 7.2158 80.2554 7.19744 80.3472 7.16072C80.4941 7.14236 80.6318 7.13318 80.7603 7.13318C80.9072 7.11482 81.0541 7.09646 81.2009 7.0781C81.2377 7.05974 81.2836 7.05974 81.3386 7.0781C81.3937 7.09646 81.4396 7.09646 81.4763 7.0781Z" fill="black"/>
</svg>
