<svg width="26" height="26" viewBox="0 0 26 26" fill="none" xmlns="http://www.w3.org/2000/svg">
<g style="mix-blend-mode:difference">
<path d="M12.8907 0.580077C14.5256 0.580077 15.8199 1.67764 15.8199 3.44593C15.8199 5.48871 14.6872 6.75418 13.9679 9.20485C13.6015 10.4528 14.9563 11.3006 15.9398 10.4496C18.0598 8.61504 18.6997 7.01483 20.7245 5.94593C21.3376 5.64105 21.9507 5.5191 22.4957 5.5191C23.5856 5.5191 24.4711 6.00691 25.0161 6.79959C25.2886 7.22642 25.4248 7.65325 25.4248 8.14106C25.4248 9.05569 24.8117 9.90935 23.6537 10.5191C21.7856 11.4872 19.882 11.312 17.2772 11.8959C15.9247 12.199 15.9148 13.8636 17.2643 14.18C19.8539 14.7872 21.736 14.6118 23.6537 15.5801C24.8117 16.1898 25.4248 17.1045 25.4248 18.0191C25.4248 18.4459 25.2886 18.9337 25.0161 19.2996C24.4711 20.0923 23.5856 20.6411 22.4957 20.6411C21.9507 20.6411 21.3376 20.5191 20.7245 20.1532C18.669 19.0681 18.0815 17.3624 15.8699 15.4881C14.8953 14.6621 13.5645 15.4971 13.9061 16.7281C14.6128 19.2746 15.8199 20.5936 15.8199 22.7142C15.8199 24.4825 14.5256 25.5801 12.8907 25.5801C11.2559 25.5801 9.96159 24.4825 9.96159 22.7142C9.96159 20.5827 11.2597 19.2963 12.0026 16.7144C12.3552 15.4891 11.0284 14.6495 10.042 15.4574C7.71133 17.3662 7.13265 19.0575 5.05696 20.1532C4.44388 20.5191 3.89892 20.6411 3.28584 20.6411C2.26404 20.6411 1.31036 20.0923 0.765404 19.2996C0.561045 18.9337 0.424805 18.4459 0.424805 18.0191C0.424805 17.1045 0.969764 16.1898 2.1278 15.5801C4.07897 14.5949 5.88316 14.8266 8.56585 14.1737C9.90469 13.8478 9.90922 12.1778 8.56745 11.8642C5.90815 11.2427 4.01797 11.4986 2.1278 10.5191C0.969764 9.90935 0.424805 9.05569 0.424805 8.14106C0.424805 7.69676 0.537824 7.30305 0.712394 6.91385C0.746706 6.83735 0.788507 6.7643 0.83913 6.69747C1.39381 5.96522 2.30868 5.5191 3.28584 5.5191C3.89892 5.5191 4.44388 5.64105 5.05696 5.94593C7.0894 7.01884 7.72644 8.59138 9.89615 10.4451C10.8869 11.2916 12.245 10.4414 11.865 9.19493C11.126 6.77097 9.96159 5.52872 9.96159 3.44593C9.96159 1.67764 11.2559 0.580077 12.8907 0.580077Z" fill="white"/>
</g>
</svg>
